<?xml version="1.0" encoding="utf-8"?>
<!-- Generator: Adobe Illustrator 16.0.4, SVG Export Plug-In . SVG Version: 6.00 Build 0)  -->
<!DOCTYPE svg PUBLIC "-//W3C//DTD SVG 1.1//EN" "http://www.w3.org/Graphics/SVG/1.1/DTD/svg11.dtd">
<svg version="1.1" id="レイヤー_1" xmlns="http://www.w3.org/2000/svg" xmlns:xlink="http://www.w3.org/1999/xlink" x="0px"
	 y="0px" width="1024px" height="1024px" viewBox="0 0 1024 1024" enable-background="new 0 0 1024 1024" xml:space="preserve">
<path d="M0,0v1024h1024V0H0z M467.101,350.136c-12.553,2.336-21.065,5.471-25.543,9.411c-4.487,3.949-6.991,12.461-7.529,25.543
	c-0.538,13.091-0.807,111.408-0.807,294.959c0,8.957-3.764,13.443-11.293,13.443c-3.949,0-10.217-2.957-18.821-8.873
	c-8.604-5.915-17.3-14.872-26.081-26.888c-8.789-12.007-72.151-89.889-190.096-233.654c-4.663-5.73-8.52-8.604-11.562-8.604
	c-3.05,0-4.571,3.764-4.571,11.293c-1.798,88.914-2.689,156.134-2.689,201.657c0,24.384,11.469,38.719,34.417,43.021
	c11.831,2.151,17.746,5.294,17.746,9.411s-5.201,6.184-15.595,6.184l-50.549-2.688l-48.936,2.688
	c-10.402,0-15.595-2.066-15.595-6.184s5.109-7.075,15.326-8.873c10.217-1.79,18.099-7.974,23.661-18.553
	c5.554-10.57,8.873-19.443,9.949-26.619c6.453-53.775,9.679-125.473,9.679-215.102c0-17.561-4.395-30.652-13.175-39.256
	c-8.789-8.604-20.435-15.233-34.954-19.897c-14.52-4.654-21.779-9.494-21.779-14.519c0-5.017,4.117-7.529,12.368-7.529l82.814,2.689
	c3.941,0,8.243,3.143,12.906,9.41c4.655,6.276,38.265,48.76,100.829,127.448c62.556,78.697,97.064,121.894,103.518,129.599
	c6.453,7.714,11.2,11.562,14.25,11.562c3.042,0,4.747-3.764,5.108-11.293c0.714-22.938,1.076-80.302,1.076-172.081v-46.785
	c-0.361-6.453-4.033-12.721-11.024-18.821c-6.991-6.092-15.057-9.948-24.199-11.562c-9.142-1.613-13.713-4.924-13.713-9.948
	c0-3.94,5.192-5.915,15.595-5.915h30.652l61.842-1.613c10.394,0,15.595,1.975,15.595,5.915
	C485.922,344.137,479.646,347.809,467.101,350.136z M930.101,687.039l-55.926-2.688l-57.54,2.688
	c-10.402,0-15.595-2.066-15.595-6.184s5.915-7.26,17.746-9.411c24.375-4.654,36.566-17.746,36.566-39.256V530.015
	c0-5.377-0.898-8.066-2.688-8.066H647.242c-1.798,0-2.688,1.975-2.688,5.916v99.484c0,11.116,3.94,20.703,11.83,28.77
	c7.882,8.066,17.923,13.176,30.114,15.326c12.184,2.151,18.284,5.294,18.284,9.411s-5.201,6.184-15.596,6.184l-62.917-2.688
	l-59.152,2.688c-10.402,0-15.596-2.066-15.596-6.184s6.185-7.344,18.553-9.68c12.368-2.328,20.704-6.269,25.006-11.831
	c4.302-5.554,6.453-14.965,6.453-28.231V388.048c0-13.259-1.613-22.4-4.84-27.426c-3.227-5.016-10.94-8.604-23.124-10.755
	c-12.191-2.151-18.283-5.73-18.283-10.755c0-3.94,5.192-5.915,15.595-5.915l55.389,1.613l57.002-1.613
	c10.394,0,15.595,1.975,15.595,5.915c0,5.024-5.915,8.604-17.745,10.755c-24.384,4.302-36.567,17.032-36.567,38.181v103.249
	c0,3.227,2.504,4.84,7.528,4.84h199.507c2.504,0,3.764-2.151,3.764-6.453V387.51c0-20.787-11.83-33.341-35.491-37.643
	c-11.831-2.151-17.746-5.73-17.746-10.755c0-3.94,5.192-5.915,15.595-5.915l62.38,1.613l48.936-1.613
	c10.394,0,15.595,1.975,15.595,5.915c0,5.024-6.008,8.604-18.015,10.755c-12.016,2.151-19.721,6.008-23.123,11.562
	c-3.412,5.562-5.109,14.251-5.109,26.081v243.065c0,13.981,1.697,23.754,5.109,29.308c3.402,5.562,11.292,9.411,23.661,11.562
	c12.368,2.151,18.552,5.294,18.552,9.411S940.494,687.039,930.101,687.039z"/>
</svg>
